<svg id="Icons" height="512" viewBox="0 0 74 74" width="512" xmlns="http://www.w3.org/2000/svg"><path d="m35.232 72c-4.253 0-7.944-5.8-10.128-15.909a84.787 84.787 0 0 1 -1.7-13.064c-.114-2-.172-4.029-.172-6.027s.058-4.025.172-6.027a84.817 84.817 0 0 1 1.7-13.065 53.66 53.66 0 0 1 1.581-5.8 1 1 0 1 1 1.894.642 51.633 51.633 0 0 0 -1.519 5.582 82.792 82.792 0 0 0 -1.66 12.755c-.111 1.963-.168 3.953-.168 5.913s.057 3.95.168 5.914a82.8 82.8 0 0 0 1.66 12.753c1.879 8.708 5.087 14.333 8.172 14.333s6.292-5.625 8.172-14.331a82.91 82.91 0 0 0 1.66-12.756c.112-1.981.168-3.971.168-5.913s-.056-3.932-.168-5.914a82.852 82.852 0 0 0 -1.664-12.753c-1.876-8.708-5.084-14.333-8.168-14.333a4.394 4.394 0 0 0 -3.177 1.887 1 1 0 0 1 -1.526-1.294 6.253 6.253 0 0 1 4.703-2.593c4.252 0 7.944 5.8 10.127 15.909a84.835 84.835 0 0 1 1.7 13.064c.114 2.02.171 4.047.171 6.027s-.057 4.007-.171 6.026a84.863 84.863 0 0 1 -1.7 13.066c-2.183 10.108-5.875 15.908-10.127 15.908z"/><path d="m12.032 60.95h-.005c-2.692-.012-4.635-.782-5.773-2.287-3.084-4.13 1.065-12.7 10.824-22.373 2.007-2 4.257-4.027 6.688-6.032 1.3-1.069 2.666-2.138 4.056-3.179 2.3-1.712 4.611-3.3 6.877-4.735a85.9 85.9 0 0 1 9.257-5.129c10.154-4.822 17.537-5.506 20.257-1.874 3.081 4.126-1.068 12.7-10.827 22.369-2.005 1.995-4.255 4.025-6.687 6.032-1.295 1.063-2.66 2.133-4.057 3.179-2.3 1.715-4.615 3.308-6.876 4.735a85.943 85.943 0 0 1 -9.258 5.129 57.514 57.514 0 0 1 -6.245 2.562 1 1 0 1 1 -.641-1.894 55.358 55.358 0 0 0 6.029-2.476 83.666 83.666 0 0 0 9.049-5.012c2.22-1.4 4.49-2.964 6.747-4.647 1.372-1.027 2.713-2.077 3.984-3.121 2.382-1.966 4.586-3.953 6.549-5.906 8.589-8.513 12.961-16.635 10.633-19.753-2-2.673-8.987-1.7-17.8 2.485a83.618 83.618 0 0 0 -9.043 5.012c-2.224 1.4-4.494 2.966-6.748 4.647-1.366 1.022-2.707 2.072-3.983 3.121-2.382 1.964-4.586 3.951-6.55 5.906-8.589 8.513-12.964 16.635-10.635 19.753.738.977 2.146 1.479 4.183 1.488a1 1 0 0 1 -.005 2z"/><path d="m58.383 60.944c-3.665 0-8.615-1.4-14.43-4.16a86.018 86.018 0 0 1 -9.253-5.129c-2.264-1.429-4.577-3.022-6.873-4.733-1.392-1.042-2.757-2.111-4.056-3.179-2.433-2.006-4.683-4.036-6.691-6.034-9.761-9.67-13.91-18.242-10.83-22.367 2.72-3.634 10.1-2.949 20.261 1.875a85.876 85.876 0 0 1 9.257 5.128c2.259 1.426 4.572 3.019 6.872 4.733 1.4 1.047 2.764 2.117 4.057 3.179 2.434 2.008 4.684 4.038 6.69 6.034 4.943 4.892 8.678 9.809 10.513 13.844a1 1 0 1 1 -1.82.829c-1.739-3.819-5.327-8.526-10.1-13.253-1.965-1.955-4.169-3.942-6.553-5.91-1.269-1.042-2.61-2.092-3.984-3.12-2.256-1.681-4.526-3.245-6.743-4.645a83.769 83.769 0 0 0 -9.043-5.011c-8.815-4.186-15.8-5.16-17.8-2.486-2.332 3.117 2.043 11.239 10.629 19.751 1.965 1.956 4.169 3.943 6.553 5.909 1.274 1.047 2.615 2.1 3.982 3.12 2.253 1.68 4.523 3.243 6.746 4.645a83.447 83.447 0 0 0 9.041 5.011c8.461 4.012 15.17 5.092 17.506 2.817a1 1 0 0 1 1.4 1.435 7.426 7.426 0 0 1 -5.331 1.717z"/><path d="m16.044 64.505a5.043 5.043 0 1 1 5.043-5.042 5.049 5.049 0 0 1 -5.043 5.042zm0-8.085a3.043 3.043 0 1 0 3.043 3.043 3.046 3.046 0 0 0 -3.043-3.043z"/><path d="m63.724 59.565a5.043 5.043 0 1 1 5.043-5.042 5.047 5.047 0 0 1 -5.043 5.042zm0-8.085a3.043 3.043 0 1 0 3.043 3.043 3.045 3.045 0 0 0 -3.043-3.043z"/><path d="m29.232 13.759a5.043 5.043 0 1 1 5.042-5.043 5.049 5.049 0 0 1 -5.042 5.043zm0-8.086a3.043 3.043 0 1 0 3.042 3.043 3.047 3.047 0 0 0 -3.042-3.043z"/><path d="m35.232 43a6 6 0 1 1 6-6 6.007 6.007 0 0 1 -6 6zm0-10a4 4 0 1 0 4 4 4 4 0 0 0 -4-4z"/></svg>