<svg id="Capa_1" enable-background="new 0 0 513.505 513.505" height="512" viewBox="0 0 513.505 513.505" width="512" xmlns="http://www.w3.org/2000/svg"><g><path d="m346.779 353.219-50.046-26.256v-36.326c2.197-3.891 3.457-8.378 3.457-13.155v-5.676c0-13.022 5.963-25.147 16.358-33.268 9.322-7.281 17.18-16.084 23.354-26.165 2.164-3.532 1.054-8.149-2.478-10.313s-8.149-1.055-10.313 2.478c-5.233 8.544-11.894 16.006-19.796 22.178-7.695 6.01-13.579 13.66-17.344 22.245h-8.097v-60.548l17.145-38.3c3.291-7.353 2.642-15.779-1.739-22.54s-11.807-10.797-19.862-10.797h-42.333c-8.056 0-15.48 4.036-19.861 10.797s-5.031 15.187-1.74 22.54l17.145 38.3v60.548h-8.135c-3.79-8.597-9.71-16.286-17.453-22.361-19.735-15.484-31.327-38.715-31.805-63.735-.423-22.159 7.905-43.211 23.45-59.279 15.525-16.047 36.257-25.054 58.377-25.363 22.417-.299 43.54 8.175 59.486 23.9 15.949 15.729 24.732 36.725 24.732 59.123 0 5.313-.514 10.657-1.526 15.882-.788 4.066 1.87 8.001 5.937 8.79 4.066.791 8.002-1.87 8.79-5.936 1.194-6.163 1.8-12.467 1.8-18.736 0-26.444-10.37-51.233-29.2-69.803-18.827-18.566-43.775-28.585-70.228-28.219-26.141.365-50.628 10.995-68.949 29.932-18.341 18.957-28.167 43.815-27.667 69.995.564 29.545 14.248 56.973 37.542 75.25 10.507 8.245 16.533 20.421 16.533 33.408v5.672c0 5.463 1.644 10.547 4.457 14.792v34.689l-50.046 26.256c-28.766 15.092-46.635 44.647-46.635 77.131v75.654c0 4.142 3.358 7.5 7.5 7.5s7.5-3.358 7.5-7.5v-75.653c0-26.89 14.792-51.355 38.604-63.848l16.322-8.563 18.917 39.167c1.5 3.107 4.425 5.319 7.823 5.917.617.108 1.236.162 1.853.162 2.151 0 4.257-.653 6.039-1.858l6.419 13.626c.351.744.824 1.402 1.374 1.977l-3.181 16.277c-.794 4.065 1.857 8.005 5.922 8.799.486.095.97.141 1.447.141 3.515 0 6.653-2.483 7.353-6.063l3.289-16.827h18.962l11.07 56.649c.023.119.023.238.001.358l-5.442 28.326c-.781 4.068 1.883 7.999 5.95 8.78.479.092.954.136 1.423.136 3.525 0 6.668-2.497 7.357-6.086l5.442-28.323c.387-2.012.384-4.053-.01-6.066l-11.097-56.781c.303-.403.581-.828.802-1.296l6.598-14.006c1.884 1.448 4.198 2.237 6.565 2.237.616 0 1.236-.053 1.853-.161 3.397-.598 6.323-2.809 7.824-5.917l18.917-39.168 16.322 8.563c23.812 12.493 38.604 36.958 38.604 63.848v75.654c0 4.142 3.357 7.5 7.5 7.5s7.5-3.358 7.5-7.5v-75.654c.003-32.484-17.867-62.039-46.632-77.131zm-76.591 51.037h-27.577l-6.521-13.841 20.662-20.153 20.178 19.682zm-13.436-54.417-24.98-21.756v-24.795c2.35.674 4.829 1.043 7.393 1.043h34.174c2.931 0 5.751-.479 8.394-1.351v25.102zm-11.777-166.092-17.799-39.763c-1.224-2.733-.991-5.741.637-8.254s4.279-3.954 7.273-3.954h42.333c2.994 0 5.646 1.441 7.273 3.954s1.86 5.521.637 8.254l-17.799 39.763c-.432.964-.654 2.008-.654 3.064v62.15h-21.246v-62.15c-.001-1.056-.224-2.1-.655-3.064zm40.773 80.214c-.355 2.579-.558 5.195-.558 7.844v5.676c0 6.534-5.316 11.85-11.851 11.85h-34.174c-6.534 0-11.85-5.316-11.85-11.85v-5.672c0-2.648-.205-5.266-.565-7.848zm-82.441 87.005 19.907-10.444 22.477 19.576-25.813 25.178zm90.319 34.309-25.812-25.178 22.477-19.576 19.906 10.444z"/><path d="m236.2 476.264c-.022-.119-.022-.238.001-.358l1.652-8.452c.794-4.065-1.857-8.005-5.922-8.799s-8.004 1.857-8.799 5.922l-1.651 8.45c-.394 2.011-.397 4.052-.01 6.066l5.442 28.326c.689 3.59 3.832 6.086 7.357 6.086.469 0 .945-.044 1.423-.136 4.068-.781 6.732-4.712 5.95-8.78z"/><path d="m490.141 337.804-22.047-13.798v-7.895c26.141-12.001 44.349-38.408 44.349-69.004 0-41.852-34.049-75.901-75.901-75.901s-75.9 34.049-75.9 75.901c0 30.596 18.208 57.004 44.349 69.004v7.895l-22.048 13.797c-3.512 2.198-4.576 6.825-2.379 10.336 1.423 2.274 3.865 3.522 6.364 3.522 1.359 0 2.735-.369 3.972-1.143l25.569-16.001c2.191-1.371 3.521-3.773 3.521-6.358v-6.992c5.332 1.191 10.866 1.84 16.552 1.84s11.22-.649 16.553-1.84v6.992c0 2.584 1.33 4.987 3.521 6.357l25.568 16.001c9.554 5.979 15.258 16.278 15.258 27.549v43.352c0 4.142 3.357 7.5 7.5 7.5s7.5-3.358 7.5-7.5v-43.352c0-16.471-8.337-31.524-22.301-40.262zm-114.5-90.697c0-33.581 27.319-60.901 60.9-60.901s60.901 27.32 60.901 60.901-27.32 60.9-60.901 60.9-60.9-27.319-60.9-60.9z"/><path d="m126.577 351.662c2.499 0 4.942-1.248 6.365-3.522 2.198-3.511 1.133-8.139-2.378-10.336l-22.047-13.798v-7.895c26.14-12.001 44.348-38.408 44.348-69.004 0-41.852-34.049-75.901-75.901-75.901-14.141 0-27.952 3.929-39.939 11.362-3.521 2.183-4.605 6.806-2.422 10.326 2.182 3.521 6.806 4.605 10.326 2.422 9.612-5.959 20.689-9.11 32.035-9.11 33.581 0 60.901 27.32 60.901 60.901s-27.32 60.9-60.901 60.9-60.9-27.32-60.9-60.9c0-11.141 3.035-22.038 8.778-31.513 2.147-3.542 1.016-8.154-2.527-10.301s-8.154-1.015-10.301 2.527c-7.163 11.819-10.95 25.405-10.95 39.288 0 30.596 18.208 57.003 44.348 69.004v7.895l-22.047 13.798c-13.964 8.739-22.301 23.791-22.301 40.264v43.352c0 4.142 3.358 7.5 7.5 7.5s7.5-3.358 7.5-7.5v-43.352c0-11.271 5.704-21.57 15.259-27.549l25.568-16.001c2.19-1.371 3.521-3.773 3.521-6.357v-6.992c5.332 1.191 10.866 1.84 16.552 1.84s11.22-.649 16.552-1.84v6.992c0 2.584 1.331 4.987 3.521 6.357l25.568 16.001c1.237.773 2.613 1.142 3.972 1.142z"/><path d="m256.752 23.672c4.143 0 7.5-3.358 7.5-7.5v-8.672c0-4.142-3.357-7.5-7.5-7.5-4.142 0-7.5 3.358-7.5 7.5v8.672c0 4.142 3.358 7.5 7.5 7.5z"/><path d="m179.592 36.617c1.329 2.59 3.956 4.079 6.68 4.079 1.151 0 2.321-.266 3.417-.828 3.686-1.89 5.141-6.41 3.25-10.096l-3.958-7.716c-1.89-3.685-6.409-5.142-10.096-3.25-3.686 1.89-5.141 6.41-3.25 10.096z"/><path d="m119.896 81.539 7.043 5.06c1.325.952 2.854 1.41 4.37 1.41 2.333 0 4.632-1.085 6.097-3.125 2.417-3.364 1.649-8.05-1.715-10.467l-7.043-5.06c-3.365-2.417-8.051-1.65-10.467 1.715-2.416 3.364-1.649 8.051 1.715 10.467z"/><path d="m323.816 39.868c1.096.562 2.265.828 3.417.828 2.724 0 5.351-1.489 6.679-4.079l3.958-7.716c1.891-3.686.436-8.206-3.25-10.096-3.687-1.891-8.206-.435-10.096 3.25l-3.958 7.716c-1.891 3.686-.436 8.206 3.25 10.097z"/><path d="m382.196 88.009c1.516 0 3.046-.458 4.37-1.41l7.043-5.06c3.364-2.417 4.132-7.103 1.715-10.467-2.417-3.365-7.104-4.132-10.467-1.715l-7.043 5.06c-3.364 2.417-4.132 7.103-1.715 10.467 1.465 2.04 3.764 3.125 6.097 3.125z"/></g></svg>