<svg id="Capa_1" enable-background="new 0 0 511.996 511.996" height="512" viewBox="0 0 511.996 511.996" width="512" xmlns="http://www.w3.org/2000/svg"><path d="m442.371 216.691c7.027 9.54 18.332 15.745 31.063 15.745 21.264 0 38.563-17.299 38.563-38.563v-31.062c0-2.806-1.636-5.454-4.145-6.712l-114.55-57.27c-3.704-1.851-8.21-.35-10.062 3.354-1.853 3.705-.351 8.21 3.354 10.063l86.137 43.065h-119.796l-71.88-95.84 76.308 38.154c3.706 1.853 8.211.351 10.063-3.354 1.853-3.705.351-8.21-3.354-10.062l-91.152-45.575c3.789-4.106 6.109-9.588 6.109-15.603 0-12.7-10.332-23.031-23.031-23.031s-23.031 10.332-23.031 23.031c0 6.015 2.32 11.496 6.109 15.603l-94.492 47.246c-3.704 1.852-5.206 6.357-3.354 10.062 2.892 3.974 6.246 5.092 10.063 3.354l79.648-39.824-71.88 95.84h-119.799l82.791-41.396c3.704-1.852 5.206-6.357 3.354-10.062s-6.355-5.206-10.063-3.354l-111.2 55.6c-2.509 1.254-4.144 3.909-4.144 6.712v31.062c0 21.264 17.299 38.563 38.563 38.563 12.731 0 24.036-6.204 31.063-15.745 8.149 11.064 24.612 17.633 38.218 15.068l-46.117 110.681c-23.248-4.644-46.541 14.359-46.541 38.15 0 21.453 17.454 38.907 38.907 38.907s38.907-17.454 38.907-38.907c0-13.513-6.928-25.434-17.415-32.411l53.387-128.133c.986-1.065 1.914-2.185 2.776-3.356 9.361 12.71 28.376 18.769 43.338 13.73l-24.019 80.044c-22.07-2.142-42.694 16.485-42.694 38.719 0 21.453 17.453 38.907 38.906 38.907s38.906-17.454 38.906-38.907c0-14.9-8.424-27.864-20.755-34.398l29.157-97.164c5.593 7.131 13.633 12.252 22.85 14.076v203.173h-85.689c-4.143 0-7.5 3.358-7.5 7.5v23.562h-116.748c-4.143 0-7.5 3.358-7.5 7.5v31.063c0 4.142 3.357 7.5 7.5 7.5h496.996c4.143 0 7.5-3.358 7.5-7.5v-31.063c0-4.142-3.357-7.5-7.5-7.5h-116.753v-23.562c0-4.142-3.357-7.5-7.5-7.5h-85.686v-80.934c0-4.142-3.357-7.5-7.5-7.5s-7.5 3.358-7.5 7.5v80.93h-47.119v-203.169c9.613-1.904 17.95-7.39 23.56-15.006 5.61 7.616 13.946 13.103 23.56 15.006v89.56c0 4.142 3.357 7.5 7.5 7.5s7.5-3.358 7.5-7.5v-89.559c9.217-1.824 17.257-6.945 22.85-14.076l29.157 97.164c-12.331 6.534-20.755 19.497-20.755 34.398 0 21.453 17.453 38.907 38.906 38.907s38.906-17.454 38.906-38.907c0-22.222-20.686-40.855-42.694-38.719l-24.019-80.044c14.962 5.039 33.977-1.02 43.338-13.73.863 1.171 1.79 2.291 2.776 3.356l53.387 128.133c-10.487 6.977-17.415 18.898-17.415 32.411 0 21.453 17.453 38.907 38.906 38.907s38.907-17.454 38.907-38.907c0-23.776-23.385-42.776-46.541-38.15l-46.114-110.682c13.606 2.565 30.069-4.005 38.218-15.069zm-388.277 187.807c-13.183 0-23.907-10.725-23.907-23.907s10.725-23.907 23.907-23.907 23.906 10.725 23.906 23.907-10.725 23.907-23.906 23.907zm93.186-31.407c-13.182 0-23.906-10.725-23.906-23.907s10.725-23.906 23.906-23.906 23.906 10.724 23.906 23.906-10.724 23.907-23.906 23.907zm349.716 123.905h-481.996v-16.063h481.996zm-124.253-31.062h-233.494v-16.062h233.494zm15.879-116.749c0 13.182-10.725 23.907-23.906 23.907s-23.906-10.725-23.906-23.907 10.725-23.906 23.906-23.906 23.906 10.723 23.906 23.906zm93.188 31.406c0 13.182-10.725 23.907-23.907 23.907s-23.906-10.725-23.906-23.907 10.725-23.907 23.906-23.907c13.182.001 23.907 10.725 23.907 23.907zm15.186-186.717c0 12.992-10.57 23.563-23.563 23.563s-23.563-10.57-23.563-23.563v-23.562h47.125v23.562zm-62.125 0c0 12.992-10.569 23.563-23.562 23.563s-23.563-10.57-23.563-23.563v-23.562h47.124v23.562zm-178.873-178.874c4.429 0 8.031 3.603 8.031 8.031 0 4.415-3.582 8.008-7.993 8.029-.026 0-.051 0-.077 0-4.411-.021-7.993-3.614-7.993-8.029.001-4.428 3.603-8.031 8.032-8.031zm0 36.063 78.187 104.249h-156.374zm-217.435 166.373c-12.993 0-23.563-10.57-23.563-23.562v-23.562h47.125v23.562c0 12.992-10.57 23.562-23.562 23.562zm38.562-23.562v-23.562h47.124v23.562c0 12.992-10.57 23.563-23.563 23.563s-23.561-10.571-23.561-23.563zm62.124 0v-23.562h47.125v23.562c0 12.992-10.57 23.563-23.563 23.563s-23.562-10.571-23.562-23.563zm85.687 23.562c-12.992 0-23.562-10.57-23.562-23.563v-23.562h47.124v23.562c0 12.993-10.57 23.563-23.562 23.563zm62.125 0c-12.992 0-23.563-10.57-23.563-23.563v-23.562h47.124v23.562c0 12.993-10.569 23.563-23.561 23.563zm62.124 0c-12.992 0-23.563-10.57-23.563-23.563v-23.562h23.56.009.006 23.55v23.562c0 12.993-10.57 23.563-23.562 23.563z"/></svg>